<mxfile host="app.diagrams.net" modified="2024-01-30T13:31:05.248Z" agent="Mozilla/5.0 (Windows NT 10.0; Win64; x64) AppleWebKit/537.36 (KHTML, like Gecko) Chrome/121.0.0.0 Safari/537.36" etag="H-7NN_jnihBWKhyEKQRJ" version="23.0.2" type="github">
  <diagram name="Page-1" id="zi0EJcFr2eHBoUb6Lg16">
    <mxGraphModel dx="1024" dy="1269" grid="0" gridSize="10" guides="1" tooltips="1" connect="1" arrows="1" fold="1" page="0" pageScale="1" pageWidth="850" pageHeight="1100" math="0" shadow="0">
      <root>
        <mxCell id="0" />
        <mxCell id="1" parent="0" />
        <mxCell id="bCk6AaRzewTtvJ0kMV2Z-3" value="" style="edgeStyle=none;curved=1;rounded=0;orthogonalLoop=1;jettySize=auto;html=1;fontSize=12;startSize=8;endSize=8;" edge="1" parent="1" source="bCk6AaRzewTtvJ0kMV2Z-1" target="bCk6AaRzewTtvJ0kMV2Z-2">
          <mxGeometry relative="1" as="geometry" />
        </mxCell>
        <mxCell id="bCk6AaRzewTtvJ0kMV2Z-1" value="START" style="ellipse;whiteSpace=wrap;html=1;fontSize=16;" vertex="1" parent="1">
          <mxGeometry x="49" y="9" width="120" height="93" as="geometry" />
        </mxCell>
        <mxCell id="bCk6AaRzewTtvJ0kMV2Z-98" style="edgeStyle=none;curved=1;rounded=0;orthogonalLoop=1;jettySize=auto;html=1;fontSize=12;startSize=8;endSize=8;" edge="1" parent="1" source="bCk6AaRzewTtvJ0kMV2Z-2">
          <mxGeometry relative="1" as="geometry">
            <mxPoint x="109" y="304.153836763822" as="targetPoint" />
          </mxGeometry>
        </mxCell>
        <mxCell id="bCk6AaRzewTtvJ0kMV2Z-2" value="num = 0" style="shape=hexagon;perimeter=hexagonPerimeter2;whiteSpace=wrap;html=1;fixedSize=1;fontSize=16;" vertex="1" parent="1">
          <mxGeometry x="49" y="158" width="120" height="80" as="geometry" />
        </mxCell>
        <mxCell id="bCk6AaRzewTtvJ0kMV2Z-107" value="" style="edgeStyle=none;curved=1;rounded=0;orthogonalLoop=1;jettySize=auto;html=1;fontSize=12;startSize=8;endSize=8;" edge="1" parent="1" source="bCk6AaRzewTtvJ0kMV2Z-97" target="bCk6AaRzewTtvJ0kMV2Z-106">
          <mxGeometry relative="1" as="geometry" />
        </mxCell>
        <mxCell id="bCk6AaRzewTtvJ0kMV2Z-110" value="" style="edgeStyle=none;curved=1;rounded=0;orthogonalLoop=1;jettySize=auto;html=1;fontSize=12;startSize=8;endSize=8;" edge="1" parent="1" source="bCk6AaRzewTtvJ0kMV2Z-97" target="bCk6AaRzewTtvJ0kMV2Z-109">
          <mxGeometry relative="1" as="geometry" />
        </mxCell>
        <mxCell id="bCk6AaRzewTtvJ0kMV2Z-97" value="is num even?" style="rhombus;whiteSpace=wrap;html=1;fontSize=16;" vertex="1" parent="1">
          <mxGeometry x="57" y="429" width="108" height="108" as="geometry" />
        </mxCell>
        <mxCell id="bCk6AaRzewTtvJ0kMV2Z-101" value="" style="edgeStyle=none;curved=1;rounded=0;orthogonalLoop=1;jettySize=auto;html=1;fontSize=12;startSize=8;endSize=8;" edge="1" parent="1" source="bCk6AaRzewTtvJ0kMV2Z-100" target="bCk6AaRzewTtvJ0kMV2Z-97">
          <mxGeometry relative="1" as="geometry" />
        </mxCell>
        <mxCell id="bCk6AaRzewTtvJ0kMV2Z-100" value="INPUT num" style="shape=parallelogram;perimeter=parallelogramPerimeter;whiteSpace=wrap;html=1;fixedSize=1;fontSize=16;" vertex="1" parent="1">
          <mxGeometry x="49" y="318" width="120" height="60" as="geometry" />
        </mxCell>
        <mxCell id="bCk6AaRzewTtvJ0kMV2Z-114" style="edgeStyle=none;curved=1;rounded=0;orthogonalLoop=1;jettySize=auto;html=1;entryX=1;entryY=0.5;entryDx=0;entryDy=0;fontSize=12;startSize=8;endSize=8;" edge="1" parent="1" source="bCk6AaRzewTtvJ0kMV2Z-106" target="bCk6AaRzewTtvJ0kMV2Z-113">
          <mxGeometry relative="1" as="geometry" />
        </mxCell>
        <mxCell id="bCk6AaRzewTtvJ0kMV2Z-106" value="OUTPUT EVEN" style="shape=parallelogram;perimeter=parallelogramPerimeter;whiteSpace=wrap;html=1;fixedSize=1;fontSize=16;" vertex="1" parent="1">
          <mxGeometry x="279" y="453" width="143" height="60" as="geometry" />
        </mxCell>
        <mxCell id="bCk6AaRzewTtvJ0kMV2Z-108" value="Yes" style="text;html=1;strokeColor=none;fillColor=none;align=center;verticalAlign=middle;whiteSpace=wrap;rounded=0;fontSize=16;" vertex="1" parent="1">
          <mxGeometry x="192" y="443" width="60" height="30" as="geometry" />
        </mxCell>
        <mxCell id="bCk6AaRzewTtvJ0kMV2Z-115" style="edgeStyle=none;curved=1;rounded=0;orthogonalLoop=1;jettySize=auto;html=1;entryX=0;entryY=0.5;entryDx=0;entryDy=0;fontSize=12;startSize=8;endSize=8;" edge="1" parent="1" source="bCk6AaRzewTtvJ0kMV2Z-109" target="bCk6AaRzewTtvJ0kMV2Z-113">
          <mxGeometry relative="1" as="geometry" />
        </mxCell>
        <mxCell id="bCk6AaRzewTtvJ0kMV2Z-109" value="OUTPUT ODD" style="shape=parallelogram;perimeter=parallelogramPerimeter;whiteSpace=wrap;html=1;fixedSize=1;fontSize=16;" vertex="1" parent="1">
          <mxGeometry x="-162" y="453" width="129" height="60" as="geometry" />
        </mxCell>
        <mxCell id="bCk6AaRzewTtvJ0kMV2Z-112" value="No" style="text;html=1;strokeColor=none;fillColor=none;align=center;verticalAlign=middle;whiteSpace=wrap;rounded=0;fontSize=16;" vertex="1" parent="1">
          <mxGeometry x="-18" y="450" width="60" height="30" as="geometry" />
        </mxCell>
        <mxCell id="bCk6AaRzewTtvJ0kMV2Z-113" value="END" style="ellipse;whiteSpace=wrap;html=1;fontSize=16;" vertex="1" parent="1">
          <mxGeometry x="57" y="650" width="120" height="80" as="geometry" />
        </mxCell>
      </root>
    </mxGraphModel>
  </diagram>
</mxfile>
